<svg width="19" height="21" viewBox="0 0 19 21" fill="none" xmlns="http://www.w3.org/2000/svg">
<path fill-rule="evenodd" clip-rule="evenodd" d="M17.935 6.01818C18.3133 5.63986 18.3133 5.02648 17.935 4.64816L14.06 0.773161C13.6817 0.394842 13.0683 0.394842 12.69 0.773161C12.3117 1.15148 12.3117 1.76486 12.69 2.14318L14.9112 4.36442L1.75 4.36442C1.21498 4.36442 0.78125 4.79815 0.78125 5.33317C0.78125 5.8682 1.21498 6.30192 1.75 6.30192L14.9112 6.30192L12.69 8.52316C12.3117 8.90148 12.3117 9.51486 12.69 9.89318C13.0683 10.2715 13.6817 10.2715 14.06 9.89318L17.935 6.01818ZM1.06499 14.9815C0.686672 15.3598 0.686672 15.9732 1.06499 16.3515L4.93999 20.2265C5.31831 20.6048 5.93169 20.6048 6.31001 20.2265C6.68833 19.8482 6.68833 19.2348 6.31001 18.8565L4.08877 16.6353L17.25 16.6353C17.785 16.6353 18.2188 16.2015 18.2188 15.6665C18.2188 15.1315 17.785 14.6978 17.25 14.6978L4.08877 14.6978L6.31001 12.4765C6.68833 12.0982 6.68833 11.4848 6.31001 11.1065C5.93169 10.7282 5.31831 10.7282 4.93999 11.1065L1.06499 14.9815Z" fill="white"/>
</svg>
